<?xml version="1.0" encoding="iso-8859-1"?>
<!-- Generator: Adobe Illustrator 19.0.0, SVG Export Plug-In . SVG Version: 6.00 Build 0)  -->
<svg version="1.1" id="Capa_1" xmlns="http://www.w3.org/2000/svg" xmlns:xlink="http://www.w3.org/1999/xlink" x="0px" y="0px"
	 viewBox="0 0 512.001 512.001" style="enable-background:new 0 0 512.001 512.001;" xml:space="preserve">
<g>
	<g>
		<path d="M373.166,118.1c-31.502-5.081-62.938,1.645-89.566,18.975c7.943-17.452,20.373-33.236,37.183-47.151
			c20.025-16.576,39.025-24.13,39.18-24.191c7.864-3.04,11.774-11.88,8.734-19.744c-3.039-7.863-11.876-11.775-19.744-8.734
			c-2.406,0.93-40.224,15.967-70.092,51.072c-1.12-5.526-2.683-11.088-4.799-16.602C256.29,25.429,207.467,2.373,205.398,1.414
			c-3.746-1.735-8.035-1.879-11.889-0.401c-3.853,1.48-6.944,4.457-8.566,8.252c-0.897,2.099-21.751,51.901-3.979,98.197
			c1.602,4.172,3.458,8.152,5.507,11.947c-15.439-3.414-31.528-3.909-47.635-1.31C68.204,129.496,19.73,197.669,30.78,270.073
			c7.865,51.537,19.363,95.802,34.179,131.562c16.803,40.562,38.026,70.384,63.079,88.641
			c19.837,14.455,41.934,21.727,65.914,21.725c6.633,0,13.414-0.557,20.327-1.672c15.953-2.573,29.928-8.421,41.722-17.433
			c11.794,9.012,25.77,14.861,41.722,17.433c31.897,5.146,60.915-1.6,86.24-20.053c25.053-18.256,46.277-48.078,63.079-88.641
			c14.816-35.762,26.314-80.026,34.179-131.562C492.271,197.669,443.797,129.496,373.166,118.1z M207.822,38.202
			c12.638,8.744,29.767,23.703,37.737,44.464c7.92,20.631,5.178,43.308,1.646,58.319c-12.637-8.743-29.766-23.702-37.736-44.464
			C201.548,75.891,204.29,53.215,207.822,38.202z M451.04,265.467c-15.518,101.689-44.929,170.894-85.057,200.133
			c-18.763,13.672-39.501,18.445-63.399,14.587c-14.646-2.362-26.215-8.329-35.371-18.241c-2.89-3.127-6.955-4.906-11.214-4.906
			s-8.324,1.779-11.214,4.906c-9.155,9.912-20.725,15.878-35.371,18.241c-23.898,3.853-44.635-0.915-63.399-14.587
			c-40.128-29.239-69.539-98.444-85.057-200.133c-8.531-55.902,28.586-108.489,82.738-117.225
			c5.196-0.839,10.393-1.253,15.551-1.253c21.081,0,41.527,6.926,58.814,20.135c22.336,17.067,53.537,17.067,75.874,0
			c21.518-16.441,47.93-23.149,74.365-18.882h0.001C422.455,156.979,459.571,209.566,451.04,265.467z"/>
	</g>
</g>
<g>
</g>
<g>
</g>
<g>
</g>
<g>
</g>
<g>
</g>
<g>
</g>
<g>
</g>
<g>
</g>
<g>
</g>
<g>
</g>
<g>
</g>
<g>
</g>
<g>
</g>
<g>
</g>
<g>
</g>
</svg>
