<svg id="Capa_1" enable-background="new 0 0 512 512" height="512" viewBox="0 0 512 512" width="512" xmlns="http://www.w3.org/2000/svg"><path d="m491.555 44.245c-4.068-11.095-12.765-19.792-23.86-23.86-85.181-31.229-180.683-26.32-262.018 13.472-3.721 1.82-5.262 6.312-3.441 10.033s6.311 5.263 10.033 3.441c77.685-38.007 168.9-42.695 250.262-12.863 1.04.381 2.04.834 3.008 1.34l-81.295 81.295c-.417-13.507-6.891-25.507-16.798-33.377 5.669-24.683 18.405-33.119 28.387-35.784 4.002-1.067 6.381-5.178 5.312-9.179-1.067-4.002-5.181-6.381-9.179-5.312-18.786 5.013-31.842 19.772-38.133 42.904-4.388-1.455-9.071-2.255-13.941-2.255-4.869 0-9.552.799-13.939 2.255-6.281-23.13-19.335-37.889-38.127-42.904-3.998-1.067-8.112 1.31-9.179 5.312-1.068 4.002 1.311 8.112 5.312 9.179 17.331 4.625 25.003 21.135 28.38 35.784-10.244 8.138-16.832 20.69-16.832 34.76v48.714l-8.363 22.99-10.808-29.474c-2.675-7.309-7.887-13.43-14.677-17.236l-40.909-22.919c-3.615-2.024-8.184-.737-10.209 2.877-2.024 3.614-.736 8.184 2.877 10.209l40.908 22.919c3.666 2.054 6.479 5.358 7.925 9.309l16.937 46.188-5.772 15.868-219.221 219.223c-11.403-30.082-18.159-61.605-20.098-93.932 27.914-5.341 48.435-29.807 48.435-58.688 0-2.502-.159-5.02-.476-7.512 41.429-5.659 72.453-41.088 72.453-83.125 0-32.101-17.988-60.893-46.352-75.054 5.953-7.074 12.247-13.934 18.768-20.455 16.833-16.834 35.478-31.754 55.416-44.349 3.502-2.212 4.548-6.844 2.336-10.345-2.212-3.502-6.845-4.547-10.345-2.336-20.876 13.186-40.395 28.805-58.013 46.423-8.378 8.378-16.398 17.294-23.84 26.499-2.005 2.48-2.726 5.806-1.928 8.896.798 3.097 3.043 5.664 6.001 6.867 26.096 10.625 42.959 35.689 42.959 63.853 0 35.006-26.189 64.43-60.919 68.445-3.599.416-6.916 2.309-9.101 5.19-2.186 2.883-3.078 6.429-2.513 9.983.369 2.315.556 4.677.556 7.018 0 22.791-17.054 41.911-39.671 44.474-5.283.6-9.227 5.234-8.98 10.552 1.754 37.692 9.748 74.39 23.738 109.17l-40.425 40.425c-2.929 2.93-2.929 7.678 0 10.607 1.465 1.464 3.385 2.196 5.304 2.196s3.839-.732 5.304-2.196l40.436-40.436c84.175 33.832 179.119 31.891 261.555-5.088 3.779-1.695 5.469-6.133 3.773-9.912-1.695-3.78-6.136-5.469-9.912-3.773-76.935 34.509-165.169 36.999-243.855 7.211l196.486-196.486c-5.307 15.287-8.317 20.919-10.285 31.901l-18.999 15.464c-8.7 7.075-12.661 18.291-10.335 29.28l14.81 69.598c.75 3.526 3.863 5.941 7.328 5.941 4.76 0 8.34-4.382 7.344-9.062l-14.809-69.591c-1.153-5.452.81-11.018 5.128-14.53l8.404-6.841c.843 12.706 4.591 25.201 11.169 36.524l19.782 34.051c5.038 8.673 14.398 14.06 24.428 14.06h11.88c9.068 0 17.211-4.015 22.762-10.354 5.551 6.339 13.694 10.354 22.762 10.354h11.88c10.03 0 19.391-5.388 24.429-14.06l19.781-34.051c6.577-11.322 10.325-23.816 11.169-36.521l8.404 6.841c8.118 6.6 4.61 16.348 4.622 16.889-25.909 38.545-61.126 72.645-103.723 97.625-3.573 2.096-4.771 6.69-2.676 10.263 1.396 2.381 3.902 3.707 6.476 3.707 1.289 0 2.595-.332 3.787-1.031 33.421-19.6 63.556-45.191 88.695-75.57l-6.855 32.237c-.861 4.051 1.725 8.034 5.776 8.895 4.033.862 8.031-1.711 8.895-5.776l13.698-64.42c22.864-34.669 39.094-73.371 47.748-114.417 12.997-61.646 8.43-125.423-13.207-184.437zm-181.048 74.244c0-16.204 13.182-29.387 29.386-29.387s29.387 13.183 29.387 29.387v42.534h-58.773zm6.624 264.583h-11.88c-4.704 0-9.095-2.527-11.458-6.596l-19.782-34.051c-10.271-17.681-12.153-38.842-5.164-58.058l39.411-108.345h24.134v191.788c.001 8.416-6.845 15.262-15.261 15.262zm88.643-40.646-19.781 34.051c-2.363 4.068-6.754 6.596-11.459 6.596h-11.88c-8.416 0-15.262-6.847-15.262-15.262v-191.789h24.135l39.41 108.345c6.991 19.217 5.109 40.377-5.163 58.059zm84.31-116.837c-6.848 32.478-18.666 63.422-34.938 91.913-4.532-8.298-9.845-10.196-26.361-24.32-.843-4.704-2.088-9.368-3.751-13.941l-24.432-67.168 16.928-46.188c1.454-3.955 4.273-7.263 7.936-9.316l40.899-22.919c3.614-2.025 4.901-6.596 2.877-10.209s-6.597-4.899-10.209-2.877l-40.9 22.919c-6.78 3.8-11.994 9.917-14.684 17.232l-10.805 29.481-8.364-22.993v-28.918l91.862-91.862c.501.961.951 1.956 1.33 2.988 20.667 56.366 25.028 117.288 12.612 176.178z"/></svg>